<svg width="248" height="46" viewBox="0 0 248 46" fill="none" xmlns="http://www.w3.org/2000/svg">
<path d="M26.9594 30.8496H35.7191C35.5433 33.7207 34.7523 36.2695 33.3461 38.4961C31.9594 40.7227 30.016 42.4609 27.516 43.7109C25.0355 44.9609 22.0472 45.5859 18.5511 45.5859C15.8168 45.5859 13.3656 45.1172 11.1976 44.1797C9.02966 43.2227 7.17419 41.8555 5.63123 40.0781C4.10779 38.3008 2.94568 36.1523 2.1449 33.6328C1.34412 31.1133 0.943726 28.291 0.943726 25.166V22.207C0.943726 19.082 1.35388 16.2598 2.17419 13.7402C3.01404 11.2012 4.20544 9.04297 5.74841 7.26562C7.31091 5.48828 9.17615 4.12109 11.3441 3.16406C13.5121 2.20703 15.934 1.72852 18.6097 1.72852C22.1644 1.72852 25.1625 2.37305 27.6039 3.66211C30.0648 4.95117 31.9691 6.72852 33.3168 8.99414C34.684 11.2598 35.5043 13.8379 35.7777 16.7285H26.9886C26.891 15.0098 26.5492 13.5547 25.9633 12.3633C25.3773 11.1523 24.4886 10.2441 23.2972 9.63867C22.1254 9.01367 20.5629 8.70117 18.6097 8.70117C17.1449 8.70117 15.8656 8.97461 14.7719 9.52148C13.6781 10.0684 12.7601 10.8984 12.0179 12.0117C11.2758 13.125 10.7191 14.5312 10.348 16.2305C9.99646 17.9102 9.82068 19.8828 9.82068 22.1484V25.166C9.82068 27.373 9.98669 29.3164 10.3187 30.9961C10.6508 32.6562 11.1586 34.0625 11.8422 35.2148C12.5453 36.3477 13.4437 37.207 14.5375 37.793C15.6508 38.3594 16.9886 38.6426 18.5511 38.6426C20.3871 38.6426 21.9008 38.3496 23.0922 37.7637C24.2836 37.1777 25.1918 36.3086 25.8168 35.1562C26.4613 34.0039 26.8422 32.5684 26.9594 30.8496Z" fill="white"/>
<path d="M41.4156 29.4727V28.8574C41.4156 26.5332 41.7476 24.3945 42.4117 22.4414C43.0758 20.4688 44.0426 18.7598 45.3121 17.3145C46.5816 15.8691 48.1441 14.7461 49.9996 13.9453C51.8551 13.125 53.984 12.7148 56.3863 12.7148C58.7886 12.7148 60.9273 13.125 62.8023 13.9453C64.6773 14.7461 66.2496 15.8691 67.5191 17.3145C68.8082 18.7598 69.7847 20.4688 70.4488 22.4414C71.1129 24.3945 71.4449 26.5332 71.4449 28.8574V29.4727C71.4449 31.7773 71.1129 33.916 70.4488 35.8887C69.7847 37.8418 68.8082 39.5508 67.5191 41.0156C66.2496 42.4609 64.6871 43.584 62.8316 44.3848C60.9761 45.1855 58.8472 45.5859 56.4449 45.5859C54.0426 45.5859 51.9039 45.1855 50.0289 44.3848C48.1734 43.584 46.6011 42.4609 45.3121 41.0156C44.0426 39.5508 43.0758 37.8418 42.4117 35.8887C41.7476 33.916 41.4156 31.7773 41.4156 29.4727ZM49.8531 28.8574V29.4727C49.8531 30.8008 49.9703 32.041 50.2047 33.1934C50.439 34.3457 50.8101 35.3613 51.3179 36.2402C51.8453 37.0996 52.5289 37.7734 53.3687 38.2617C54.2086 38.75 55.234 38.9941 56.4449 38.9941C57.6168 38.9941 58.6226 38.75 59.4625 38.2617C60.3023 37.7734 60.9761 37.0996 61.484 36.2402C61.9918 35.3613 62.3629 34.3457 62.5972 33.1934C62.8511 32.041 62.9781 30.8008 62.9781 29.4727V28.8574C62.9781 27.5684 62.8511 26.3574 62.5972 25.2246C62.3629 24.0723 61.982 23.0566 61.4547 22.1777C60.9468 21.2793 60.273 20.5762 59.4332 20.0684C58.5933 19.5605 57.5777 19.3066 56.3863 19.3066C55.1949 19.3066 54.1793 19.5605 53.3394 20.0684C52.5191 20.5762 51.8453 21.2793 51.3179 22.1777C50.8101 23.0566 50.439 24.0723 50.2047 25.2246C49.9703 26.3574 49.8531 27.5684 49.8531 28.8574Z" fill="white"/>
<path d="M97.1511 38.0859V0H105.647V45H98.0008L97.1511 38.0859ZM77.1121 29.5312V28.916C77.1121 26.4941 77.3855 24.2969 77.9324 22.3242C78.4793 20.332 79.2801 18.623 80.3347 17.1973C81.3894 15.7715 82.6883 14.668 84.2312 13.8867C85.7742 13.1055 87.532 12.7148 89.5047 12.7148C91.3601 12.7148 92.9812 13.1055 94.3679 13.8867C95.7742 14.668 96.9656 15.7812 97.9422 17.2266C98.9383 18.6523 99.739 20.3418 100.345 22.2949C100.95 24.2285 101.389 26.3477 101.663 28.6523V30C101.389 32.207 100.95 34.2578 100.345 36.1523C99.739 38.0469 98.9383 39.707 97.9422 41.1328C96.9656 42.5391 95.7742 43.6328 94.3679 44.4141C92.9617 45.1953 91.3211 45.5859 89.4461 45.5859C87.4734 45.5859 85.7156 45.1855 84.1726 44.3848C82.6492 43.584 81.3601 42.4609 80.3054 41.0156C79.2703 39.5703 78.4793 37.8711 77.9324 35.918C77.3855 33.9648 77.1121 31.8359 77.1121 29.5312ZM85.5496 28.916V29.5312C85.5496 30.8398 85.6472 32.0605 85.8426 33.1934C86.0574 34.3262 86.3992 35.332 86.8679 36.2109C87.3562 37.0703 87.9812 37.7441 88.7429 38.2324C89.5242 38.7012 90.4715 38.9355 91.5847 38.9355C93.0301 38.9355 94.2215 38.6133 95.159 37.9688C96.0965 37.3047 96.8093 36.3965 97.2976 35.2441C97.8054 34.0918 98.0984 32.7637 98.1765 31.2598V27.4219C98.1179 26.1914 97.9422 25.0879 97.6492 24.1113C97.3758 23.1152 96.9656 22.2656 96.4187 21.5625C95.8914 20.8594 95.2273 20.3125 94.4265 19.9219C93.6453 19.5312 92.7176 19.3359 91.6433 19.3359C90.5496 19.3359 89.6121 19.5898 88.8308 20.0977C88.0496 20.5859 87.4148 21.2598 86.9265 22.1191C86.4578 22.9785 86.1062 23.9941 85.8718 25.166C85.657 26.3184 85.5496 27.5684 85.5496 28.916Z" fill="white"/>
<path d="M131.148 37.8516V23.7305C131.148 22.7148 130.982 21.8457 130.65 21.123C130.318 20.3809 129.801 19.8047 129.098 19.3945C128.414 18.9844 127.525 18.7793 126.432 18.7793C125.494 18.7793 124.684 18.9453 124 19.2773C123.316 19.5898 122.789 20.0488 122.418 20.6543C122.047 21.2402 121.861 21.9336 121.861 22.7344H113.424C113.424 21.3867 113.736 20.1074 114.361 18.8965C114.986 17.6855 115.895 16.6211 117.086 15.7031C118.277 14.7656 119.693 14.0332 121.334 13.5059C122.994 12.9785 124.85 12.7148 126.9 12.7148C129.361 12.7148 131.549 13.125 133.463 13.9453C135.377 14.7656 136.881 15.9961 137.975 17.6367C139.088 19.2773 139.645 21.3281 139.645 23.7891V37.3535C139.645 39.0918 139.752 40.5176 139.967 41.6309C140.182 42.7246 140.494 43.6816 140.904 44.502V45H132.379C131.969 44.1406 131.656 43.0664 131.441 41.7773C131.246 40.4688 131.148 39.1602 131.148 37.8516ZM132.262 25.6934L132.32 30.4688H127.603C126.49 30.4688 125.523 30.5957 124.703 30.8496C123.883 31.1035 123.209 31.4648 122.682 31.9336C122.154 32.3828 121.764 32.9102 121.51 33.5156C121.275 34.1211 121.158 34.7852 121.158 35.5078C121.158 36.2305 121.324 36.8848 121.656 37.4707C121.988 38.0371 122.467 38.4863 123.092 38.8184C123.717 39.1309 124.449 39.2871 125.289 39.2871C126.559 39.2871 127.662 39.0332 128.6 38.5254C129.537 38.0176 130.26 37.3926 130.768 36.6504C131.295 35.9082 131.568 35.2051 131.588 34.541L133.814 38.1152C133.502 38.916 133.072 39.7461 132.525 40.6055C131.998 41.4648 131.324 42.2754 130.504 43.0371C129.684 43.7793 128.697 44.3945 127.545 44.8828C126.393 45.3516 125.025 45.5859 123.443 45.5859C121.432 45.5859 119.605 45.1855 117.965 44.3848C116.344 43.5645 115.055 42.4414 114.098 41.0156C113.16 39.5703 112.691 37.9297 112.691 36.0938C112.691 34.4336 113.004 32.959 113.629 31.6699C114.254 30.3809 115.172 29.2969 116.383 28.418C117.613 27.5195 119.146 26.8457 120.982 26.3965C122.818 25.9277 124.947 25.6934 127.369 25.6934H132.262Z" fill="white"/>
<path d="M156.21 20.0684V45H147.773V13.3008H155.683L156.21 20.0684ZM154.98 28.0371H152.694C152.694 25.6934 152.997 23.584 153.603 21.709C154.208 19.8145 155.058 18.2031 156.152 16.875C157.245 15.5273 158.544 14.502 160.048 13.7988C161.571 13.0762 163.271 12.7148 165.146 12.7148C166.63 12.7148 167.987 12.9297 169.218 13.3594C170.448 13.7891 171.503 14.4727 172.382 15.4102C173.28 16.3477 173.964 17.5879 174.433 19.1309C174.921 20.6738 175.165 22.5586 175.165 24.7852V45H166.669V24.7559C166.669 23.3496 166.474 22.2559 166.083 21.4746C165.693 20.6934 165.116 20.1465 164.355 19.834C163.612 19.502 162.694 19.3359 161.601 19.3359C160.468 19.3359 159.482 19.5605 158.642 20.0098C157.821 20.459 157.138 21.084 156.591 21.8848C156.064 22.666 155.663 23.584 155.39 24.6387C155.116 25.6934 154.98 26.8262 154.98 28.0371Z" fill="white"/>
<path d="M202.102 38.0859V0H210.598V45H202.952L202.102 38.0859ZM182.063 29.5312V28.916C182.063 26.4941 182.336 24.2969 182.883 22.3242C183.43 20.332 184.231 18.623 185.286 17.1973C186.34 15.7715 187.639 14.668 189.182 13.8867C190.725 13.1055 192.483 12.7148 194.455 12.7148C196.311 12.7148 197.932 13.1055 199.319 13.8867C200.725 14.668 201.916 15.7812 202.893 17.2266C203.889 18.6523 204.69 20.3418 205.295 22.2949C205.901 24.2285 206.34 26.3477 206.614 28.6523V30C206.34 32.207 205.901 34.2578 205.295 36.1523C204.69 38.0469 203.889 39.707 202.893 41.1328C201.916 42.5391 200.725 43.6328 199.319 44.4141C197.912 45.1953 196.272 45.5859 194.397 45.5859C192.424 45.5859 190.666 45.1855 189.123 44.3848C187.6 43.584 186.311 42.4609 185.256 41.0156C184.221 39.5703 183.43 37.8711 182.883 35.918C182.336 33.9648 182.063 31.8359 182.063 29.5312ZM190.5 28.916V29.5312C190.5 30.8398 190.598 32.0605 190.793 33.1934C191.008 34.3262 191.35 35.332 191.819 36.2109C192.307 37.0703 192.932 37.7441 193.694 38.2324C194.475 38.7012 195.422 38.9355 196.536 38.9355C197.981 38.9355 199.172 38.6133 200.11 37.9688C201.047 37.3047 201.76 36.3965 202.248 35.2441C202.756 34.0918 203.049 32.7637 203.127 31.2598V27.4219C203.069 26.1914 202.893 25.0879 202.6 24.1113C202.327 23.1152 201.916 22.2656 201.37 21.5625C200.842 20.8594 200.178 20.3125 199.377 19.9219C198.596 19.5312 197.668 19.3359 196.594 19.3359C195.5 19.3359 194.563 19.5898 193.782 20.0977C193 20.5859 192.366 21.2598 191.877 22.1191C191.409 22.9785 191.057 23.9941 190.823 25.166C190.608 26.3184 190.5 27.5684 190.5 28.916Z" fill="white"/>
<path d="M217.642 29.4727V28.8574C217.642 26.5332 217.974 24.3945 218.638 22.4414C219.302 20.4688 220.269 18.7598 221.539 17.3145C222.808 15.8691 224.371 14.7461 226.226 13.9453C228.082 13.125 230.211 12.7148 232.613 12.7148C235.015 12.7148 237.154 13.125 239.029 13.9453C240.904 14.7461 242.476 15.8691 243.746 17.3145C245.035 18.7598 246.011 20.4688 246.675 22.4414C247.339 24.3945 247.671 26.5332 247.671 28.8574V29.4727C247.671 31.7773 247.339 33.916 246.675 35.8887C246.011 37.8418 245.035 39.5508 243.746 41.0156C242.476 42.4609 240.914 43.584 239.058 44.3848C237.203 45.1855 235.074 45.5859 232.671 45.5859C230.269 45.5859 228.13 45.1855 226.255 44.3848C224.4 43.584 222.828 42.4609 221.539 41.0156C220.269 39.5508 219.302 37.8418 218.638 35.8887C217.974 33.916 217.642 31.7773 217.642 29.4727ZM226.08 28.8574V29.4727C226.08 30.8008 226.197 32.041 226.431 33.1934C226.666 34.3457 227.037 35.3613 227.544 36.2402C228.072 37.0996 228.755 37.7734 229.595 38.2617C230.435 38.75 231.461 38.9941 232.671 38.9941C233.843 38.9941 234.849 38.75 235.689 38.2617C236.529 37.7734 237.203 37.0996 237.711 36.2402C238.218 35.3613 238.589 34.3457 238.824 33.1934C239.078 32.041 239.205 30.8008 239.205 29.4727V28.8574C239.205 27.5684 239.078 26.3574 238.824 25.2246C238.589 24.0723 238.209 23.0566 237.681 22.1777C237.173 21.2793 236.5 20.5762 235.66 20.0684C234.82 19.5605 233.804 19.3066 232.613 19.3066C231.421 19.3066 230.406 19.5605 229.566 20.0684C228.746 20.5762 228.072 21.2793 227.544 22.1777C227.037 23.0566 226.666 24.0723 226.431 25.2246C226.197 26.3574 226.08 27.5684 226.08 28.8574Z" fill="white"/>
</svg>
