<svg width="79" height="29" viewBox="0 0 79 29" fill="none" xmlns="http://www.w3.org/2000/svg">
<path d="M3.72 15.03C3.72 16.57 4.05 17.7 4.71 18.42C5.39 19.12 6.26 19.47 7.32 19.47C7.9 19.47 8.44 19.39 8.94 19.23C9.46 19.07 9.88 18.88 10.2 18.66V10.53C9.94 10.47 9.62 10.42 9.24 10.38C8.86 10.32 8.38 10.29 7.8 10.29C6.48 10.29 5.47 10.73 4.77 11.61C4.07 12.47 3.72 13.61 3.72 15.03ZM13.83 21.69C13.83 24.19 13.19 26.02 11.91 27.18C10.65 28.34 8.71 28.92 6.09 28.92C5.13 28.92 4.19 28.84 3.27 28.68C2.37 28.52 1.55 28.31 0.81 28.05L1.47 24.96C2.09 25.22 2.79 25.43 3.57 25.59C4.37 25.75 5.23 25.83 6.15 25.83C7.61 25.83 8.65 25.53 9.27 24.93C9.89 24.33 10.2 23.44 10.2 22.26V21.66C9.84 21.84 9.36 22.02 8.76 22.2C8.18 22.38 7.51 22.47 6.75 22.47C5.75 22.47 4.83 22.31 3.99 21.99C3.17 21.67 2.46 21.2 1.86 20.58C1.28 19.96 0.82 19.19 0.48 18.27C0.16 17.33 0 16.25 0 15.03C0 13.89 0.17 12.84 0.51 11.88C0.87 10.92 1.38 10.1 2.04 9.42C2.72 8.74 3.54 8.21 4.5 7.83C5.46 7.45 6.55 7.26 7.77 7.26C8.95 7.26 10.07 7.35 11.13 7.53C12.19 7.71 13.09 7.9 13.83 8.1V21.69Z" fill="white"/>
<path d="M22.1081 23.28H18.4781V7.59H22.1081V23.28ZM22.4981 3C22.4981 3.68 22.2781 4.22 21.8381 4.62C21.3981 5.02 20.8781 5.22 20.2781 5.22C19.6581 5.22 19.1281 5.02 18.6881 4.62C18.2481 4.22 18.0281 3.68 18.0281 3C18.0281 2.3 18.2481 1.75 18.6881 1.35C19.1281 0.95 19.6581 0.749999 20.2781 0.749999C20.8781 0.749999 21.3981 0.95 21.8381 1.35C22.2781 1.75 22.4981 2.3 22.4981 3Z" fill="white"/>
<path d="M37.1491 15.39C37.1491 13.85 36.8391 12.63 36.2191 11.73C35.6191 10.83 34.6591 10.38 33.3391 10.38C32.7391 10.38 32.1691 10.47 31.6291 10.65C31.1091 10.83 30.6891 11.03 30.3691 11.25V20.28C30.6291 20.34 30.9591 20.4 31.3591 20.46C31.7791 20.5 32.2791 20.52 32.8591 20.52C34.1991 20.52 35.2491 20.07 36.0091 19.17C36.7691 18.25 37.1491 16.99 37.1491 15.39ZM40.8691 15.45C40.8691 16.71 40.6791 17.85 40.2991 18.87C39.9391 19.87 39.4091 20.73 38.7091 21.45C38.0291 22.17 37.1991 22.72 36.2191 23.1C35.2391 23.48 34.1291 23.67 32.8891 23.67C31.6891 23.67 30.5391 23.58 29.4391 23.4C28.3591 23.22 27.4591 23.02 26.7391 22.8V0.599999L30.3691 0V8.13C30.7891 7.91 31.2991 7.71 31.8991 7.53C32.5191 7.35 33.1991 7.26 33.9391 7.26C35.0391 7.26 36.0191 7.46 36.8791 7.86C37.7591 8.24 38.4891 8.79 39.0691 9.51C39.6491 10.23 40.0891 11.1 40.3891 12.12C40.7091 13.12 40.8691 14.23 40.8691 15.45Z" fill="white"/>
<path d="M48.2702 23.28H44.6402V7.59H48.2702V23.28ZM48.6602 3C48.6602 3.68 48.4402 4.22 48.0002 4.62C47.5602 5.02 47.0402 5.22 46.4402 5.22C45.8202 5.22 45.2902 5.02 44.8502 4.62C44.4102 4.22 44.1902 3.68 44.1902 3C44.1902 2.3 44.4102 1.75 44.8502 1.35C45.2902 0.95 45.8202 0.749999 46.4402 0.749999C47.0402 0.749999 47.5602 0.95 48.0002 1.35C48.4402 1.75 48.6602 2.3 48.6602 3Z" fill="white"/>
<path d="M59.2913 0C60.1313 0 60.8712 0.0800002 61.5112 0.24C62.1512 0.38 62.6313 0.509999 62.9513 0.629999L62.2612 3.63C61.9212 3.47 61.5212 3.34 61.0612 3.24C60.6212 3.14 60.1413 3.09 59.6213 3.09C59.0412 3.09 58.5512 3.18 58.1512 3.36C57.7512 3.52 57.4312 3.75 57.1912 4.05C56.9512 4.35 56.7813 4.72 56.6813 5.16C56.5813 5.58 56.5312 6.04 56.5312 6.54V7.59H62.2313V10.62H56.5312V23.28H52.9012V6.48C52.9012 4.46 53.4312 2.88 54.4912 1.74C55.5512 0.58 57.1513 0 59.2913 0Z" fill="white"/>
<path d="M78.221 7.59C76.601 13.55 74.721 18.95 72.581 23.79C72.181 24.69 71.771 25.46 71.351 26.1C70.931 26.74 70.461 27.27 69.941 27.69C69.421 28.11 68.841 28.41 68.201 28.59C67.561 28.79 66.821 28.89 65.981 28.89C65.421 28.89 64.861 28.83 64.301 28.71C63.761 28.59 63.351 28.46 63.071 28.32L63.731 25.41C64.451 25.69 65.161 25.83 65.861 25.83C66.801 25.83 67.531 25.6 68.051 25.14C68.591 24.7 69.061 24.01 69.461 23.07C68.321 20.87 67.221 18.47 66.161 15.87C65.121 13.27 64.191 10.51 63.371 7.59H67.241C67.441 8.43 67.681 9.34 67.961 10.32C68.261 11.3 68.581 12.3 68.921 13.32C69.261 14.32 69.621 15.32 70.001 16.32C70.381 17.32 70.761 18.25 71.141 19.11C71.781 17.33 72.381 15.44 72.941 13.44C73.501 11.42 74.011 9.47 74.471 7.59H78.221Z" fill="white"/>
</svg>
