<svg width="202" height="71" viewBox="0 0 202 71" fill="none" xmlns="http://www.w3.org/2000/svg">
<g clip-path="url(#clip0_705_2)">
<path d="M70.5332 20.916H76.9492V51.7363C76.9492 54.5879 76.3438 57.0098 75.1328 59.002C73.9219 60.9941 72.2324 62.5078 70.0645 63.543C67.8965 64.5977 65.3867 65.125 62.5352 65.125C61.3242 65.125 59.9766 64.9492 58.4922 64.5977C57.0273 64.2461 55.6016 63.6797 54.2148 62.8984C52.8477 62.1367 51.7051 61.1309 50.7871 59.8809L54.0977 55.7207C55.2305 57.0684 56.4805 58.0547 57.8477 58.6797C59.2148 59.3047 60.6504 59.6172 62.1543 59.6172C63.7754 59.6172 65.1523 59.3145 66.2852 58.709C67.4375 58.123 68.3262 57.2539 68.9512 56.1016C69.5762 54.9492 69.8887 53.543 69.8887 51.8828V28.0938L70.5332 20.916ZM49 37.1172V36.502C49 34.0996 49.293 31.9121 49.8789 29.9395C50.4648 27.9473 51.3047 26.2383 52.3984 24.8125C53.4922 23.3672 54.8203 22.2637 56.3828 21.502C57.9453 20.7207 59.7129 20.3301 61.6855 20.3301C63.7363 20.3301 65.4844 20.7012 66.9297 21.4434C68.3945 22.1855 69.6152 23.25 70.5918 24.6367C71.5684 26.0039 72.3301 27.6445 72.877 29.5586C73.4434 31.4531 73.8633 33.5625 74.1367 35.8867V37.8496C73.8828 40.1152 73.4531 42.1855 72.8477 44.0605C72.2422 45.9355 71.4414 47.5566 70.4453 48.9238C69.4492 50.291 68.2188 51.3457 66.7539 52.0879C65.3086 52.8301 63.5996 53.2012 61.627 53.2012C59.6934 53.2012 57.9453 52.8008 56.3828 52C54.8398 51.1992 53.5117 50.0762 52.3984 48.6309C51.3047 47.1855 50.4648 45.4863 49.8789 43.5332C49.293 41.5605 49 39.4219 49 37.1172ZM56.0605 36.502V37.1172C56.0605 38.5625 56.1973 39.9102 56.4707 41.1602C56.7637 42.4102 57.2031 43.5137 57.7891 44.4707C58.3945 45.4082 59.1562 46.1504 60.0742 46.6973C61.0117 47.2246 62.1152 47.4883 63.3848 47.4883C65.0449 47.4883 66.4023 47.1367 67.457 46.4336C68.5312 45.7305 69.3516 44.7832 69.918 43.5918C70.5039 42.3809 70.9141 41.0332 71.1484 39.5488V34.2461C71.0312 33.0938 70.7871 32.0195 70.416 31.0234C70.0645 30.0273 69.5859 29.1582 68.9805 28.416C68.375 27.6543 67.6133 27.0684 66.6953 26.6582C65.7773 26.2285 64.6934 26.0137 63.4434 26.0137C62.1738 26.0137 61.0703 26.2871 60.1328 26.834C59.1953 27.3809 58.4238 28.1328 57.8184 29.0898C57.2324 30.0469 56.793 31.1602 56.5 32.4297C56.207 33.6992 56.0605 35.0566 56.0605 36.502Z" fill="url(#paint0_linear_705_2)"/>
<path d="M91.832 20.916V52.6152H84.7422V20.916H91.832ZM84.2734 12.5957C84.2734 11.5215 84.625 10.6328 85.3281 9.92969C86.0508 9.20703 87.0469 8.8457 88.3164 8.8457C89.5664 8.8457 90.5527 9.20703 91.2754 9.92969C91.998 10.6328 92.3594 11.5215 92.3594 12.5957C92.3594 13.6504 91.998 14.5293 91.2754 15.2324C90.5527 15.9355 89.5664 16.2871 88.3164 16.2871C87.0469 16.2871 86.0508 15.9355 85.3281 15.2324C84.625 14.5293 84.2734 13.6504 84.2734 12.5957Z" fill="url(#paint1_linear_705_2)"/>
<path d="M99.5957 7.61523H106.656V45.8477L105.982 52.6152H99.5957V7.61523ZM127.34 36.4727V37.0879C127.34 39.4316 127.076 41.5898 126.549 43.5625C126.041 45.5156 125.26 47.2148 124.205 48.6602C123.17 50.1055 121.881 51.2285 120.338 52.0293C118.814 52.8105 117.047 53.2012 115.035 53.2012C113.062 53.2012 111.344 52.8301 109.879 52.0879C108.414 51.3457 107.184 50.291 106.188 48.9238C105.211 47.5566 104.42 45.9258 103.814 44.0312C103.209 42.1367 102.779 40.0469 102.525 37.7617V35.7988C102.779 33.4941 103.209 31.4043 103.814 29.5293C104.42 27.6348 105.211 26.0039 106.188 24.6367C107.184 23.25 108.404 22.1855 109.85 21.4434C111.314 20.7012 113.023 20.3301 114.977 20.3301C117.008 20.3301 118.795 20.7207 120.338 21.502C121.9 22.2832 123.199 23.3965 124.234 24.8418C125.27 26.2676 126.041 27.9668 126.549 29.9395C127.076 31.9121 127.34 34.0898 127.34 36.4727ZM120.279 37.0879V36.4727C120.279 35.0469 120.162 33.709 119.928 32.459C119.693 31.1895 119.303 30.0762 118.756 29.1191C118.229 28.1621 117.506 27.4102 116.588 26.8633C115.689 26.2969 114.566 26.0137 113.219 26.0137C111.969 26.0137 110.895 26.2285 109.996 26.6582C109.098 27.0879 108.346 27.6738 107.74 28.416C107.135 29.1582 106.656 30.0176 106.305 30.9941C105.973 31.9707 105.748 33.0254 105.631 34.1582V39.4609C105.807 40.9258 106.178 42.2734 106.744 43.5039C107.33 44.7148 108.15 45.6914 109.205 46.4336C110.26 47.1562 111.617 47.5176 113.277 47.5176C114.586 47.5176 115.689 47.2539 116.588 46.7266C117.486 46.1992 118.199 45.4668 118.727 44.5293C119.273 43.5723 119.664 42.459 119.898 41.1895C120.152 39.9199 120.279 38.5527 120.279 37.0879Z" fill="url(#paint2_linear_705_2)"/>
<path d="M140.875 20.916V52.6152H133.785V20.916H140.875ZM133.316 12.5957C133.316 11.5215 133.668 10.6328 134.371 9.92969C135.094 9.20703 136.09 8.8457 137.359 8.8457C138.609 8.8457 139.596 9.20703 140.318 9.92969C141.041 10.6328 141.402 11.5215 141.402 12.5957C141.402 13.6504 141.041 14.5293 140.318 15.2324C139.596 15.9355 138.609 16.2871 137.359 16.2871C136.09 16.2871 135.094 15.9355 134.371 15.2324C133.668 14.5293 133.316 13.6504 133.316 12.5957Z" fill="url(#paint3_linear_705_2)"/>
<path d="M158.16 52.6152H151.1V17.8691C151.1 15.5059 151.539 13.5234 152.418 11.9219C153.316 10.3008 154.596 9.08008 156.256 8.25977C157.916 7.41992 159.879 7 162.145 7C162.848 7 163.541 7.04883 164.225 7.14648C164.908 7.22461 165.572 7.35156 166.217 7.52734L166.041 12.9766C165.65 12.8789 165.221 12.8105 164.752 12.7715C164.303 12.7324 163.814 12.7129 163.287 12.7129C162.213 12.7129 161.285 12.918 160.504 13.3281C159.742 13.7188 159.156 14.2949 158.746 15.0566C158.355 15.8184 158.16 16.7559 158.16 17.8691V52.6152ZM164.693 20.916V26.0723H146.236V20.916H164.693Z" fill="url(#paint4_linear_705_2)"/>
<path d="M179.02 49.1582L187.633 20.916H195.191L182.477 57.4492C182.184 58.2305 181.803 59.0801 181.334 59.998C180.865 60.916 180.25 61.7852 179.488 62.6055C178.746 63.4453 177.818 64.1191 176.705 64.627C175.592 65.1543 174.244 65.418 172.662 65.418C172.037 65.418 171.432 65.3594 170.846 65.2422C170.279 65.1445 169.742 65.0371 169.234 64.9199L169.205 59.5293C169.4 59.5488 169.635 59.5684 169.908 59.5879C170.201 59.6074 170.436 59.6172 170.611 59.6172C171.783 59.6172 172.76 59.4707 173.541 59.1777C174.322 58.9043 174.957 58.4551 175.445 57.8301C175.953 57.2051 176.383 56.3652 176.734 55.3105L179.02 49.1582ZM174.156 20.916L181.686 44.6465L182.945 52.0879L178.053 53.3477L166.539 20.916H174.156Z" fill="url(#paint5_linear_705_2)"/>
<path d="M39.9482 47.2281L36.7164 50.6004C36.3809 50.9562 35.8362 50.9586 35.4983 50.6185L10.821 25.3495C10.4831 25.0093 10.4911 24.4462 10.8266 24.0904L14.0584 20.7181C14.3939 20.3623 14.9386 20.3599 15.2765 20.7L39.9538 45.969C40.2882 46.3157 40.29 46.8758 39.9482 47.2281ZM28.9562 50.7799L27.5666 46.3232C27.4201 45.8522 26.9215 45.6007 26.4622 45.7776L18.3192 48.9296L16.4853 40.2363C16.3812 39.7465 15.9069 39.4492 15.4366 39.5861L11.0178 40.8167C10.5607 40.944 10.2773 41.4304 10.3946 41.9106L13.8269 56.0236C13.9435 56.5204 14.4505 56.802 14.9222 56.632L28.3956 51.9086C28.8541 51.7482 29.1062 51.2444 28.9562 50.7799ZM40.3865 29.4114L36.948 15.2949C36.8314 14.7981 36.3244 14.5165 35.8526 14.6865L22.373 19.4064C21.9242 19.5638 21.6721 20.0675 21.8123 20.5351L23.2019 24.9918C23.3485 25.4628 23.8471 25.7144 24.3063 25.5374L32.4557 22.3889L34.2895 31.0822C34.3936 31.572 34.8679 31.8694 35.3382 31.7325L39.7571 30.5018C40.2204 30.378 40.4976 29.8882 40.3865 29.4114Z" fill="url(#paint6_linear_705_2)"/>
</g>
<defs>
<linearGradient id="paint0_linear_705_2" x1="195" y1="23" x2="53" y2="60" gradientUnits="userSpaceOnUse">
<stop stop-color="#0071FF"/>
<stop offset="1" stop-color="#181818"/>
</linearGradient>
<linearGradient id="paint1_linear_705_2" x1="195" y1="23" x2="53" y2="60" gradientUnits="userSpaceOnUse">
<stop stop-color="#0071FF"/>
<stop offset="1" stop-color="#181818"/>
</linearGradient>
<linearGradient id="paint2_linear_705_2" x1="195" y1="23" x2="53" y2="60" gradientUnits="userSpaceOnUse">
<stop stop-color="#0071FF"/>
<stop offset="1" stop-color="#181818"/>
</linearGradient>
<linearGradient id="paint3_linear_705_2" x1="195" y1="23" x2="53" y2="60" gradientUnits="userSpaceOnUse">
<stop stop-color="#0071FF"/>
<stop offset="1" stop-color="#181818"/>
</linearGradient>
<linearGradient id="paint4_linear_705_2" x1="195" y1="23" x2="53" y2="60" gradientUnits="userSpaceOnUse">
<stop stop-color="#0071FF"/>
<stop offset="1" stop-color="#181818"/>
</linearGradient>
<linearGradient id="paint5_linear_705_2" x1="195" y1="23" x2="53" y2="60" gradientUnits="userSpaceOnUse">
<stop stop-color="#0071FF"/>
<stop offset="1" stop-color="#181818"/>
</linearGradient>
<linearGradient id="paint6_linear_705_2" x1="37.3516" y1="11.9389" x2="26.0828" y2="56.3557" gradientUnits="userSpaceOnUse">
<stop stop-color="#0071FF"/>
<stop offset="1" stop-color="#070A1C"/>
</linearGradient>
<clipPath id="clip0_705_2">
<rect width="202" height="71" fill="white"/>
</clipPath>
</defs>
</svg>
