<svg width="40" height="40" viewBox="0 0 40 40" fill="none" xmlns="http://www.w3.org/2000/svg">
<path d="M15.9394 20.3531C16.33 20.7437 16.9631 20.7437 17.3538 20.3531L18.0606 19.6462C18.4513 19.2556 18.4513 18.6225 18.0606 18.2319L15.8281 16L18.06 13.7675C18.4506 13.3769 18.4506 12.7437 18.06 12.3531L17.3531 11.6462C16.9625 11.2556 16.3294 11.2556 15.9388 11.6462L12.2925 15.2925C11.9019 15.6831 11.9019 16.3162 12.2925 16.7069L15.9394 20.3531ZM21.94 19.6469L22.6469 20.3538C23.0375 20.7444 23.6706 20.7444 24.0613 20.3538L27.7075 16.7075C28.0981 16.3169 28.0981 15.6838 27.7075 15.2931L24.0613 11.6469C23.6706 11.2562 23.0375 11.2562 22.6469 11.6469L21.94 12.3538C21.5494 12.7444 21.5494 13.3775 21.94 13.7681L24.1719 16L21.94 18.2325C21.5494 18.6231 21.5494 19.2563 21.94 19.6469ZM39 30H23.8463C23.8 31.2381 22.9269 32 21.8 32H18C16.8319 32 15.9362 30.9081 15.9519 30H1C0.45 30 0 30.45 0 31V32C0 34.2 1.8 36 4 36H36C38.2 36 40 34.2 40 32V31C40 30.45 39.55 30 39 30ZM36 7C36 5.35 34.65 4 33 4H7C5.35 4 4 5.35 4 7V28H36V7ZM32 24H8V8H32V24Z" fill="currentColor"/>
</svg>
