<svg width="33" height="40" viewBox="0 0 33 40" fill="none" xmlns="http://www.w3.org/2000/svg">
<path d="M17.7627 19.9699L31.4071 33.6142C32.3501 34.5573 32.3501 36.0823 31.4071 37.0153L29.1397 39.2827C28.1966 40.2257 26.6717 40.2257 25.7386 39.2827L16.0572 29.6213L6.38575 39.2927C5.44269 40.2358 3.91773 40.2358 2.9847 39.2927L0.707299 37.0253C-0.235766 36.0823 -0.235766 34.5573 0.707299 33.6243L14.3516 19.9799C15.2947 19.0268 16.8197 19.0268 17.7627 19.9699ZM14.3516 0.707299L0.707299 14.3516C-0.235766 15.2947 -0.235766 16.8197 0.707299 17.7527L2.97467 20.0201C3.91773 20.9631 5.44269 20.9631 6.37572 20.0201L16.0472 10.3486L25.7186 20.0201C26.6616 20.9631 28.1866 20.9631 29.1196 20.0201L31.387 17.7527C32.3301 16.8096 32.3301 15.2847 31.387 14.3516L17.7427 0.707299C16.8197 -0.235766 15.2947 -0.235766 14.3516 0.707299Z" fill="currentColor"/>
</svg>
